<svg version="1" xmlns="http://www.w3.org/2000/svg" width="500" height="500" viewBox="0 0 375.000000 375.000000"><path d="M132 116v22h6l-.2 27.7-.3 27.8-8.2.3-8.3.3v4.9c0 4.9.1 5 3 5h2.9l.3 33.7c.3 33.6.3 33.8 2.6 37.1 3.1 4.3 7.7 6.6 13.2 6.6 5.5 0 10.1-2.3 13.2-6.6 2.3-3.3 2.3-3.5 2.6-37.1l.3-33.7h2.9c2.9 0 3-.1 3-5v-5h-17v-56h6V94h-22v22zM201.8 98.2c-9.8 7-14.1 15.2-14.2 26.8 0 6 .5 8.6 2.6 13.1 3.3 7.2 8.4 12.9 14.2 15.8l4.6 2.2V220l-4 2c-15 7.6-21.8 27.1-14.8 42.1 3 6.5 8.9 12.9 14.8 15.9l4 2v-31h22v15c0 11.8.3 15 1.3 15 2.2 0 10.6-6 13.2-9.4 7.5-9.8 9.2-23.2 4.4-33.6-3.5-7.4-7.2-11.6-13.6-15.2l-5.3-3V156l3.4-1.4c5.7-2.4 12.1-9 15.2-15.9 6.7-14.7 1.8-32.1-11.5-40.6-2.6-1.7-5.3-3.1-5.9-3.1-.9 0-1.2 4.3-1.2 15v15h-22v-15c0-11.8-.3-15-1.3-15-.8 0-3.4 1.5-5.9 3.2z"/></svg>